<mxfile host="Electron" agent="Mozilla/5.0 (Windows NT 10.0; Win64; x64) AppleWebKit/537.36 (KHTML, like Gecko) draw.io/24.7.5 Chrome/126.0.6478.183 Electron/31.3.0 Safari/537.36" version="24.7.5">
  <diagram name="PÃ¡gina-1" id="LgSZIwPZHX3n8RIb2UHG">
    <mxGraphModel dx="875" dy="558" grid="1" gridSize="10" guides="1" tooltips="1" connect="1" arrows="1" fold="1" page="1" pageScale="1" pageWidth="827" pageHeight="1169" math="0" shadow="0">
      <root>
        <mxCell id="0" />
        <mxCell id="1" parent="0" />
        <mxCell id="OlrdK4PVdILElhbvQsTH-1" value="" style="shape=crossbar;whiteSpace=wrap;html=1;rounded=1;" vertex="1" parent="1">
          <mxGeometry x="160" y="310" width="480" height="20" as="geometry" />
        </mxCell>
        <mxCell id="OlrdK4PVdILElhbvQsTH-3" value="" style="endArrow=none;html=1;rounded=0;" edge="1" parent="1">
          <mxGeometry width="50" height="50" relative="1" as="geometry">
            <mxPoint x="200" y="335" as="sourcePoint" />
            <mxPoint x="200" y="305" as="targetPoint" />
          </mxGeometry>
        </mxCell>
        <mxCell id="OlrdK4PVdILElhbvQsTH-4" value="" style="endArrow=none;html=1;rounded=0;" edge="1" parent="1">
          <mxGeometry width="50" height="50" relative="1" as="geometry">
            <mxPoint x="240" y="335" as="sourcePoint" />
            <mxPoint x="240" y="305" as="targetPoint" />
          </mxGeometry>
        </mxCell>
        <mxCell id="OlrdK4PVdILElhbvQsTH-5" value="" style="endArrow=none;html=1;rounded=0;" edge="1" parent="1">
          <mxGeometry width="50" height="50" relative="1" as="geometry">
            <mxPoint x="280" y="335" as="sourcePoint" />
            <mxPoint x="280" y="305" as="targetPoint" />
          </mxGeometry>
        </mxCell>
        <mxCell id="OlrdK4PVdILElhbvQsTH-6" value="" style="endArrow=none;html=1;rounded=0;" edge="1" parent="1">
          <mxGeometry width="50" height="50" relative="1" as="geometry">
            <mxPoint x="320" y="335" as="sourcePoint" />
            <mxPoint x="320" y="305" as="targetPoint" />
          </mxGeometry>
        </mxCell>
        <mxCell id="OlrdK4PVdILElhbvQsTH-7" value="" style="endArrow=none;html=1;rounded=0;" edge="1" parent="1">
          <mxGeometry width="50" height="50" relative="1" as="geometry">
            <mxPoint x="360" y="335" as="sourcePoint" />
            <mxPoint x="360" y="305" as="targetPoint" />
          </mxGeometry>
        </mxCell>
        <mxCell id="OlrdK4PVdILElhbvQsTH-8" value="" style="endArrow=none;html=1;rounded=0;" edge="1" parent="1">
          <mxGeometry width="50" height="50" relative="1" as="geometry">
            <mxPoint x="400" y="335" as="sourcePoint" />
            <mxPoint x="400" y="305" as="targetPoint" />
          </mxGeometry>
        </mxCell>
        <mxCell id="OlrdK4PVdILElhbvQsTH-9" value="" style="endArrow=none;html=1;rounded=0;" edge="1" parent="1">
          <mxGeometry width="50" height="50" relative="1" as="geometry">
            <mxPoint x="440" y="335" as="sourcePoint" />
            <mxPoint x="440" y="305" as="targetPoint" />
          </mxGeometry>
        </mxCell>
        <mxCell id="OlrdK4PVdILElhbvQsTH-10" value="" style="endArrow=none;html=1;rounded=0;" edge="1" parent="1">
          <mxGeometry width="50" height="50" relative="1" as="geometry">
            <mxPoint x="480" y="335" as="sourcePoint" />
            <mxPoint x="480" y="305" as="targetPoint" />
          </mxGeometry>
        </mxCell>
        <mxCell id="OlrdK4PVdILElhbvQsTH-11" value="" style="endArrow=none;html=1;rounded=0;" edge="1" parent="1">
          <mxGeometry width="50" height="50" relative="1" as="geometry">
            <mxPoint x="520" y="335" as="sourcePoint" />
            <mxPoint x="520" y="305" as="targetPoint" />
          </mxGeometry>
        </mxCell>
        <mxCell id="OlrdK4PVdILElhbvQsTH-12" value="" style="endArrow=none;html=1;rounded=0;" edge="1" parent="1">
          <mxGeometry width="50" height="50" relative="1" as="geometry">
            <mxPoint x="560" y="335" as="sourcePoint" />
            <mxPoint x="560" y="305" as="targetPoint" />
          </mxGeometry>
        </mxCell>
        <mxCell id="OlrdK4PVdILElhbvQsTH-14" value="&lt;font face=&quot;Lucida Console&quot;&gt;B&lt;/font&gt;" style="rounded=1;whiteSpace=wrap;html=1;fillColor=#ffe6cc;strokeColor=#d79b00;" vertex="1" parent="1">
          <mxGeometry x="160" y="200" width="40" height="120" as="geometry" />
        </mxCell>
        <mxCell id="OlrdK4PVdILElhbvQsTH-15" value="&lt;font face=&quot;Lucida Console&quot;&gt;C&lt;/font&gt;" style="rounded=1;whiteSpace=wrap;html=1;fillColor=#f8cecc;strokeColor=#b85450;" vertex="1" parent="1">
          <mxGeometry x="200" y="200" width="40" height="120" as="geometry" />
        </mxCell>
        <mxCell id="OlrdK4PVdILElhbvQsTH-16" value="10" style="text;html=1;align=center;verticalAlign=middle;whiteSpace=wrap;rounded=0;" vertex="1" parent="1">
          <mxGeometry x="190" y="330" width="20" height="30" as="geometry" />
        </mxCell>
        <mxCell id="OlrdK4PVdILElhbvQsTH-18" value="20" style="text;html=1;align=center;verticalAlign=middle;whiteSpace=wrap;rounded=0;" vertex="1" parent="1">
          <mxGeometry x="230" y="330" width="20" height="30" as="geometry" />
        </mxCell>
        <mxCell id="OlrdK4PVdILElhbvQsTH-19" value="30" style="text;html=1;align=center;verticalAlign=middle;whiteSpace=wrap;rounded=0;" vertex="1" parent="1">
          <mxGeometry x="270" y="330" width="20" height="30" as="geometry" />
        </mxCell>
        <mxCell id="OlrdK4PVdILElhbvQsTH-20" value="40" style="text;html=1;align=center;verticalAlign=middle;whiteSpace=wrap;rounded=0;" vertex="1" parent="1">
          <mxGeometry x="310" y="330" width="20" height="30" as="geometry" />
        </mxCell>
        <mxCell id="OlrdK4PVdILElhbvQsTH-21" value="50" style="text;html=1;align=center;verticalAlign=middle;whiteSpace=wrap;rounded=0;" vertex="1" parent="1">
          <mxGeometry x="350" y="330" width="20" height="30" as="geometry" />
        </mxCell>
        <mxCell id="OlrdK4PVdILElhbvQsTH-22" value="60" style="text;html=1;align=center;verticalAlign=middle;whiteSpace=wrap;rounded=0;" vertex="1" parent="1">
          <mxGeometry x="390" y="330" width="20" height="30" as="geometry" />
        </mxCell>
        <mxCell id="OlrdK4PVdILElhbvQsTH-23" value="70" style="text;html=1;align=center;verticalAlign=middle;whiteSpace=wrap;rounded=0;" vertex="1" parent="1">
          <mxGeometry x="430" y="330" width="20" height="30" as="geometry" />
        </mxCell>
        <mxCell id="OlrdK4PVdILElhbvQsTH-24" value="80" style="text;html=1;align=center;verticalAlign=middle;whiteSpace=wrap;rounded=0;" vertex="1" parent="1">
          <mxGeometry x="470" y="330" width="20" height="30" as="geometry" />
        </mxCell>
        <mxCell id="OlrdK4PVdILElhbvQsTH-25" value="90" style="text;html=1;align=center;verticalAlign=middle;whiteSpace=wrap;rounded=0;" vertex="1" parent="1">
          <mxGeometry x="510" y="330" width="20" height="30" as="geometry" />
        </mxCell>
        <mxCell id="OlrdK4PVdILElhbvQsTH-26" value="100" style="text;html=1;align=center;verticalAlign=middle;whiteSpace=wrap;rounded=0;" vertex="1" parent="1">
          <mxGeometry x="550" y="330" width="20" height="30" as="geometry" />
        </mxCell>
        <mxCell id="OlrdK4PVdILElhbvQsTH-27" value="0" style="text;html=1;align=center;verticalAlign=middle;whiteSpace=wrap;rounded=0;" vertex="1" parent="1">
          <mxGeometry x="150" y="323" width="20" height="30" as="geometry" />
        </mxCell>
        <mxCell id="OlrdK4PVdILElhbvQsTH-28" value="" style="endArrow=none;html=1;rounded=0;" edge="1" parent="1">
          <mxGeometry width="50" height="50" relative="1" as="geometry">
            <mxPoint x="600" y="335" as="sourcePoint" />
            <mxPoint x="600" y="305" as="targetPoint" />
          </mxGeometry>
        </mxCell>
        <mxCell id="OlrdK4PVdILElhbvQsTH-30" value="110" style="text;html=1;align=center;verticalAlign=middle;whiteSpace=wrap;rounded=0;" vertex="1" parent="1">
          <mxGeometry x="590" y="330" width="20" height="30" as="geometry" />
        </mxCell>
        <mxCell id="OlrdK4PVdILElhbvQsTH-31" value="120" style="text;html=1;align=center;verticalAlign=middle;whiteSpace=wrap;rounded=0;" vertex="1" parent="1">
          <mxGeometry x="630" y="323" width="20" height="30" as="geometry" />
        </mxCell>
        <mxCell id="OlrdK4PVdILElhbvQsTH-13" value="&lt;font face=&quot;Lucida Console&quot;&gt;A&lt;/font&gt;" style="rounded=1;whiteSpace=wrap;html=1;fillColor=#fff2cc;strokeColor=#d6b656;" vertex="1" parent="1">
          <mxGeometry x="240" y="200" width="400" height="120" as="geometry" />
        </mxCell>
        <mxCell id="OlrdK4PVdILElhbvQsTH-32" value="" style="shape=crossbar;whiteSpace=wrap;html=1;rounded=1;" vertex="1" parent="1">
          <mxGeometry x="162.5" y="600" width="480" height="20" as="geometry" />
        </mxCell>
        <mxCell id="OlrdK4PVdILElhbvQsTH-33" value="" style="endArrow=none;html=1;rounded=0;" edge="1" parent="1">
          <mxGeometry width="50" height="50" relative="1" as="geometry">
            <mxPoint x="202.5" y="625" as="sourcePoint" />
            <mxPoint x="202.5" y="595" as="targetPoint" />
          </mxGeometry>
        </mxCell>
        <mxCell id="OlrdK4PVdILElhbvQsTH-34" value="" style="endArrow=none;html=1;rounded=0;" edge="1" parent="1">
          <mxGeometry width="50" height="50" relative="1" as="geometry">
            <mxPoint x="242.5" y="625" as="sourcePoint" />
            <mxPoint x="242.5" y="595" as="targetPoint" />
          </mxGeometry>
        </mxCell>
        <mxCell id="OlrdK4PVdILElhbvQsTH-35" value="" style="endArrow=none;html=1;rounded=0;" edge="1" parent="1">
          <mxGeometry width="50" height="50" relative="1" as="geometry">
            <mxPoint x="282.5" y="625" as="sourcePoint" />
            <mxPoint x="282.5" y="595" as="targetPoint" />
          </mxGeometry>
        </mxCell>
        <mxCell id="OlrdK4PVdILElhbvQsTH-36" value="" style="endArrow=none;html=1;rounded=0;" edge="1" parent="1">
          <mxGeometry width="50" height="50" relative="1" as="geometry">
            <mxPoint x="322.5" y="625" as="sourcePoint" />
            <mxPoint x="322.5" y="595" as="targetPoint" />
          </mxGeometry>
        </mxCell>
        <mxCell id="OlrdK4PVdILElhbvQsTH-37" value="" style="endArrow=none;html=1;rounded=0;" edge="1" parent="1">
          <mxGeometry width="50" height="50" relative="1" as="geometry">
            <mxPoint x="362.5" y="625" as="sourcePoint" />
            <mxPoint x="362.5" y="595" as="targetPoint" />
          </mxGeometry>
        </mxCell>
        <mxCell id="OlrdK4PVdILElhbvQsTH-38" value="" style="endArrow=none;html=1;rounded=0;" edge="1" parent="1">
          <mxGeometry width="50" height="50" relative="1" as="geometry">
            <mxPoint x="402.5" y="625" as="sourcePoint" />
            <mxPoint x="402.5" y="595" as="targetPoint" />
          </mxGeometry>
        </mxCell>
        <mxCell id="OlrdK4PVdILElhbvQsTH-39" value="" style="endArrow=none;html=1;rounded=0;" edge="1" parent="1">
          <mxGeometry width="50" height="50" relative="1" as="geometry">
            <mxPoint x="442.5" y="625" as="sourcePoint" />
            <mxPoint x="442.5" y="595" as="targetPoint" />
          </mxGeometry>
        </mxCell>
        <mxCell id="OlrdK4PVdILElhbvQsTH-40" value="" style="endArrow=none;html=1;rounded=0;" edge="1" parent="1">
          <mxGeometry width="50" height="50" relative="1" as="geometry">
            <mxPoint x="482.5" y="625" as="sourcePoint" />
            <mxPoint x="482.5" y="595" as="targetPoint" />
          </mxGeometry>
        </mxCell>
        <mxCell id="OlrdK4PVdILElhbvQsTH-41" value="" style="endArrow=none;html=1;rounded=0;" edge="1" parent="1">
          <mxGeometry width="50" height="50" relative="1" as="geometry">
            <mxPoint x="522.5" y="625" as="sourcePoint" />
            <mxPoint x="522.5" y="595" as="targetPoint" />
          </mxGeometry>
        </mxCell>
        <mxCell id="OlrdK4PVdILElhbvQsTH-42" value="" style="endArrow=none;html=1;rounded=0;" edge="1" parent="1">
          <mxGeometry width="50" height="50" relative="1" as="geometry">
            <mxPoint x="562.5" y="625" as="sourcePoint" />
            <mxPoint x="562.5" y="595" as="targetPoint" />
          </mxGeometry>
        </mxCell>
        <mxCell id="OlrdK4PVdILElhbvQsTH-43" value="&lt;font face=&quot;Lucida Console&quot;&gt;B&lt;/font&gt;" style="rounded=1;whiteSpace=wrap;html=1;fillColor=#ffe6cc;strokeColor=#d79b00;" vertex="1" parent="1">
          <mxGeometry x="562.5" y="490" width="40" height="120" as="geometry" />
        </mxCell>
        <mxCell id="OlrdK4PVdILElhbvQsTH-44" value="&lt;font face=&quot;Lucida Console&quot;&gt;C&lt;/font&gt;" style="rounded=1;whiteSpace=wrap;html=1;fillColor=#f8cecc;strokeColor=#b85450;" vertex="1" parent="1">
          <mxGeometry x="602.5" y="490" width="40" height="120" as="geometry" />
        </mxCell>
        <mxCell id="OlrdK4PVdILElhbvQsTH-45" value="10" style="text;html=1;align=center;verticalAlign=middle;whiteSpace=wrap;rounded=0;" vertex="1" parent="1">
          <mxGeometry x="192.5" y="620" width="20" height="30" as="geometry" />
        </mxCell>
        <mxCell id="OlrdK4PVdILElhbvQsTH-46" value="20" style="text;html=1;align=center;verticalAlign=middle;whiteSpace=wrap;rounded=0;" vertex="1" parent="1">
          <mxGeometry x="232.5" y="620" width="20" height="30" as="geometry" />
        </mxCell>
        <mxCell id="OlrdK4PVdILElhbvQsTH-47" value="30" style="text;html=1;align=center;verticalAlign=middle;whiteSpace=wrap;rounded=0;" vertex="1" parent="1">
          <mxGeometry x="272.5" y="620" width="20" height="30" as="geometry" />
        </mxCell>
        <mxCell id="OlrdK4PVdILElhbvQsTH-48" value="40" style="text;html=1;align=center;verticalAlign=middle;whiteSpace=wrap;rounded=0;" vertex="1" parent="1">
          <mxGeometry x="312.5" y="620" width="20" height="30" as="geometry" />
        </mxCell>
        <mxCell id="OlrdK4PVdILElhbvQsTH-49" value="50" style="text;html=1;align=center;verticalAlign=middle;whiteSpace=wrap;rounded=0;" vertex="1" parent="1">
          <mxGeometry x="352.5" y="620" width="20" height="30" as="geometry" />
        </mxCell>
        <mxCell id="OlrdK4PVdILElhbvQsTH-50" value="60" style="text;html=1;align=center;verticalAlign=middle;whiteSpace=wrap;rounded=0;" vertex="1" parent="1">
          <mxGeometry x="392.5" y="620" width="20" height="30" as="geometry" />
        </mxCell>
        <mxCell id="OlrdK4PVdILElhbvQsTH-51" value="70" style="text;html=1;align=center;verticalAlign=middle;whiteSpace=wrap;rounded=0;" vertex="1" parent="1">
          <mxGeometry x="432.5" y="620" width="20" height="30" as="geometry" />
        </mxCell>
        <mxCell id="OlrdK4PVdILElhbvQsTH-52" value="80" style="text;html=1;align=center;verticalAlign=middle;whiteSpace=wrap;rounded=0;" vertex="1" parent="1">
          <mxGeometry x="472.5" y="620" width="20" height="30" as="geometry" />
        </mxCell>
        <mxCell id="OlrdK4PVdILElhbvQsTH-53" value="90" style="text;html=1;align=center;verticalAlign=middle;whiteSpace=wrap;rounded=0;" vertex="1" parent="1">
          <mxGeometry x="512.5" y="620" width="20" height="30" as="geometry" />
        </mxCell>
        <mxCell id="OlrdK4PVdILElhbvQsTH-54" value="100" style="text;html=1;align=center;verticalAlign=middle;whiteSpace=wrap;rounded=0;" vertex="1" parent="1">
          <mxGeometry x="552.5" y="620" width="20" height="30" as="geometry" />
        </mxCell>
        <mxCell id="OlrdK4PVdILElhbvQsTH-55" value="0" style="text;html=1;align=center;verticalAlign=middle;whiteSpace=wrap;rounded=0;" vertex="1" parent="1">
          <mxGeometry x="152.5" y="613" width="20" height="30" as="geometry" />
        </mxCell>
        <mxCell id="OlrdK4PVdILElhbvQsTH-56" value="" style="endArrow=none;html=1;rounded=0;" edge="1" parent="1">
          <mxGeometry width="50" height="50" relative="1" as="geometry">
            <mxPoint x="602.5" y="625" as="sourcePoint" />
            <mxPoint x="602.5" y="595" as="targetPoint" />
          </mxGeometry>
        </mxCell>
        <mxCell id="OlrdK4PVdILElhbvQsTH-57" value="110" style="text;html=1;align=center;verticalAlign=middle;whiteSpace=wrap;rounded=0;" vertex="1" parent="1">
          <mxGeometry x="592.5" y="620" width="20" height="30" as="geometry" />
        </mxCell>
        <mxCell id="OlrdK4PVdILElhbvQsTH-58" value="120" style="text;html=1;align=center;verticalAlign=middle;whiteSpace=wrap;rounded=0;" vertex="1" parent="1">
          <mxGeometry x="632.5" y="613" width="20" height="30" as="geometry" />
        </mxCell>
        <mxCell id="OlrdK4PVdILElhbvQsTH-59" value="&lt;font face=&quot;Lucida Console&quot;&gt;A&lt;/font&gt;" style="rounded=1;whiteSpace=wrap;html=1;fillColor=#fff2cc;strokeColor=#d6b656;" vertex="1" parent="1">
          <mxGeometry x="162.5" y="490" width="400" height="120" as="geometry" />
        </mxCell>
        <mxCell id="OlrdK4PVdILElhbvQsTH-60" value="" style="endArrow=classic;html=1;rounded=0;" edge="1" parent="1">
          <mxGeometry width="50" height="50" relative="1" as="geometry">
            <mxPoint x="202.5" y="450" as="sourcePoint" />
            <mxPoint x="202.5" y="480" as="targetPoint" />
          </mxGeometry>
        </mxCell>
        <mxCell id="OlrdK4PVdILElhbvQsTH-61" value="Llegada de &lt;font face=&quot;Lucida Console&quot;&gt;B,C&lt;/font&gt;" style="text;html=1;align=center;verticalAlign=middle;resizable=0;points=[];autosize=1;strokeColor=#666666;fillColor=#f5f5f5;fontColor=#333333;" vertex="1" parent="1">
          <mxGeometry x="147.5" y="410" width="110" height="30" as="geometry" />
        </mxCell>
      </root>
    </mxGraphModel>
  </diagram>
</mxfile>
